<svg xmlns="http://www.w3.org/2000/svg" xmlns:xlink="http://www.w3.org/1999/xlink" width="200" zoomAndPan="magnify" viewBox="0 0 150 149.999998" height="200" preserveAspectRatio="xMidYMid meet" version="1.0"><defs><g/><clipPath id="a4effc5f3e"><path d="M 0.160156 2 L 4 2 L 4 8 L 0.160156 8 Z M 0.160156 2 " clip-rule="nonzero"/></clipPath><clipPath id="ecc0046dd5"><path d="M 0.160156 11 L 4 11 L 4 16 L 0.160156 16 Z M 0.160156 11 " clip-rule="nonzero"/></clipPath><clipPath id="a0839910be"><path d="M 21 12 L 25 12 L 25 17.71875 L 21 17.71875 Z M 21 12 " clip-rule="nonzero"/></clipPath><clipPath id="ccf321f47c"><rect x="0" width="113" y="0" height="18"/></clipPath></defs><g fill="#043e80" fill-opacity="1"><g transform="translate(20.741545, 113.249995)"><g><path d="M 36.167969 -76.605469 C 33.449219 -78.355469 31.742188 -80.320312 31.054688 -82.503906 C 30.628906 -83.839844 30.59375 -85.191406 30.945312 -86.558594 C 31.25 -87.753906 31.851562 -88.910156 32.746094 -90.027344 C 35.050781 -92.796875 38.992188 -93.808594 44.566406 -93.066406 L 44.644531 -93.054688 L 44.726562 -93.042969 C 49.3125 -92.222656 53.050781 -90.621094 55.949219 -88.234375 C 58.960938 -85.753906 60.988281 -82.507812 62.039062 -78.492188 L 58.492188 -77.566406 L 61.96875 -78.726562 C 62.660156 -76.65625 63.003906 -73.300781 63.003906 -68.667969 L 63.003906 -59.679688 L 63 -59.589844 C 62.4375 -47.808594 62.296875 -35.886719 62.578125 -23.820312 L 58.917969 -23.738281 L 57.101562 -26.917969 C 59.199219 -28.117188 61.300781 -29.167969 63.410156 -30.070312 L 64.851562 -26.703125 L 61.296875 -27.59375 C 61.433594 -28.128906 61.433594 -28.667969 61.296875 -29.207031 L 61.230469 -29.472656 L 61.207031 -29.746094 C 60.625 -35.835938 60.480469 -43.199219 60.765625 -51.832031 L 60.769531 -51.9375 L 60.78125 -52.042969 C 61.691406 -62.070312 64.199219 -69.765625 68.300781 -75.128906 L 68.394531 -75.253906 L 68.5 -75.367188 C 71.972656 -79.1875 75.882812 -81.277344 80.230469 -81.640625 C 82.714844 -81.832031 85.089844 -81.40625 87.359375 -80.367188 C 89.503906 -79.382812 91.519531 -77.863281 93.40625 -75.804688 C 96.117188 -72.753906 98.109375 -68.300781 99.375 -62.445312 C 100.558594 -56.964844 101.152344 -50.136719 101.152344 -41.960938 C 101.433594 -27.859375 101.574219 -13.730469 101.574219 0.425781 C 101.574219 5.3125 100.382812 9.089844 97.996094 11.765625 C 95.5 14.558594 91.941406 15.953125 87.316406 15.953125 C 83.789062 15.953125 80.601562 15.0625 77.746094 13.277344 C 73.035156 10.230469 65.800781 6.335938 56.046875 1.597656 L 57.644531 -1.695312 L 59.640625 1.378906 C 54.21875 4.894531 49.316406 7.542969 44.933594 9.328125 C 40.320312 11.203125 36.222656 12.140625 32.636719 12.140625 C 27.003906 12.140625 22.019531 10.472656 17.6875 7.140625 L 17.621094 7.089844 L 17.554688 7.035156 C 13.339844 3.46875 10.421875 -0.914062 8.796875 -6.113281 C 8.109375 -8.351562 7.839844 -11.757812 7.996094 -16.335938 C 8.140625 -20.621094 8.644531 -26.070312 9.507812 -32.6875 C 10.640625 -41.746094 11.773438 -50.101562 12.90625 -57.757812 L 16.53125 -57.222656 L 15.171875 -53.820312 C 12.363281 -54.945312 10.363281 -56.375 9.167969 -58.113281 C 8.414062 -59.214844 7.980469 -60.40625 7.875 -61.6875 C 7.773438 -62.898438 7.972656 -64.121094 8.46875 -65.363281 L 11.867188 -64.003906 L 8.359375 -65.054688 C 8.722656 -66.257812 9.28125 -67.300781 10.042969 -68.1875 C 10.824219 -69.101562 11.785156 -69.8125 12.925781 -70.316406 C 14.824219 -71.164062 17.179688 -71.398438 19.980469 -71.023438 L 20.050781 -71.015625 L 20.117188 -71.003906 C 26.070312 -69.984375 30.46875 -67.429688 33.3125 -63.339844 C 36.070312 -59.378906 37.203125 -54.140625 36.714844 -47.625 C 35.847656 -37.242188 34.121094 -26.730469 31.535156 -16.089844 L 27.976562 -16.953125 L 31.585938 -16.351562 C 31.226562 -14.183594 31.125 -12.542969 31.28125 -11.433594 C 31.324219 -11.136719 31.367188 -10.949219 31.414062 -10.863281 C 31.3125 -11.046875 31.136719 -11.203125 30.882812 -11.328125 L 29.246094 -8.054688 L 29.246094 -11.714844 C 30.242188 -11.714844 31.574219 -12.238281 33.238281 -13.277344 L 35.179688 -10.171875 L 32.984375 -13.101562 C 34.289062 -14.082031 35.605469 -14.902344 36.933594 -15.566406 L 38.570312 -12.292969 L 34.917969 -12.058594 C 33.488281 -34.320312 34.0625 -56.300781 36.628906 -78 L 40.265625 -77.566406 L 37.679688 -74.976562 L 35.558594 -77.097656 L 38.148438 -79.6875 Z M 40.128906 -82.769531 L 40.460938 -82.554688 L 44.113281 -78.902344 L 43.902344 -77.136719 C 41.386719 -55.882812 40.828125 -34.34375 42.226562 -12.527344 L 42.382812 -10.101562 L 40.210938 -9.015625 C 39.277344 -8.550781 38.332031 -7.957031 37.378906 -7.242188 L 37.253906 -7.148438 L 37.121094 -7.066406 C 34.265625 -5.285156 31.640625 -4.390625 29.246094 -4.390625 L 28.382812 -4.390625 L 27.609375 -4.777344 C 26.507812 -5.328125 25.644531 -6.171875 25.011719 -7.308594 C 24.527344 -8.179688 24.203125 -9.207031 24.03125 -10.398438 C 23.765625 -12.253906 23.875 -14.640625 24.363281 -17.558594 L 24.386719 -17.691406 L 24.417969 -17.820312 C 26.914062 -28.089844 28.578125 -38.207031 29.410156 -48.171875 C 29.769531 -52.957031 29.066406 -56.621094 27.300781 -59.15625 C 25.625 -61.566406 22.816406 -63.109375 18.878906 -63.785156 L 19.496094 -67.394531 L 19.015625 -63.765625 C 17.578125 -63.957031 16.539062 -63.910156 15.898438 -63.625 C 15.765625 -63.566406 15.667969 -63.5 15.601562 -63.421875 C 15.515625 -63.320312 15.441406 -63.164062 15.375 -62.953125 L 15.328125 -62.796875 L 15.269531 -62.644531 C 15.199219 -62.472656 15.167969 -62.355469 15.171875 -62.292969 C 15.171875 -62.304688 15.171875 -62.316406 15.167969 -62.328125 C 15.171875 -62.316406 15.183594 -62.292969 15.203125 -62.265625 C 15.335938 -62.074219 15.574219 -61.859375 15.921875 -61.625 C 16.421875 -61.28125 17.082031 -60.945312 17.890625 -60.621094 L 20.578125 -59.546875 L 20.152344 -56.683594 C 19.027344 -49.082031 17.898438 -40.769531 16.769531 -31.738281 C 15.9375 -25.355469 15.453125 -20.140625 15.316406 -16.089844 C 15.1875 -12.332031 15.347656 -9.734375 15.789062 -8.296875 C 16.988281 -4.453125 19.15625 -1.207031 22.289062 1.441406 L 19.921875 4.238281 L 22.15625 1.335938 C 25.171875 3.65625 28.664062 4.816406 32.636719 4.816406 C 35.269531 4.816406 38.445312 4.058594 42.171875 2.542969 C 46.125 0.933594 50.621094 -1.503906 55.652344 -4.769531 L 57.386719 -5.894531 L 59.246094 -4.988281 C 69.269531 -0.121094 76.730469 3.898438 81.628906 7.066406 C 83.292969 8.109375 85.191406 8.628906 87.316406 8.628906 C 89.753906 8.628906 91.496094 8.046875 92.53125 6.886719 C 93.679688 5.601562 94.25 3.449219 94.25 0.425781 C 94.25 -13.679688 94.109375 -27.808594 93.828125 -41.960938 C 93.828125 -49.613281 93.289062 -55.925781 92.214844 -60.898438 C 91.21875 -65.5 89.816406 -68.816406 88.007812 -70.855469 C 86.789062 -72.1875 85.554688 -73.136719 84.308594 -73.707031 C 83.1875 -74.222656 82.03125 -74.433594 80.839844 -74.34375 C 78.40625 -74.140625 76.097656 -72.839844 73.917969 -70.441406 L 71.210938 -72.90625 L 74.117188 -70.679688 C 70.875 -66.4375 68.859375 -60.003906 68.074219 -51.378906 L 64.429688 -51.710938 L 68.089844 -51.589844 C 67.8125 -43.269531 67.945312 -36.21875 68.496094 -30.441406 L 64.851562 -30.09375 L 68.40625 -30.984375 C 68.835938 -29.261719 68.835938 -27.539062 68.40625 -25.816406 L 67.964844 -24.054688 L 66.292969 -23.335938 C 64.445312 -22.542969 62.589844 -21.617188 60.734375 -20.558594 L 55.398438 -17.507812 L 55.257812 -23.652344 C 54.972656 -35.890625 55.113281 -47.984375 55.683594 -59.941406 L 59.339844 -59.765625 L 55.679688 -59.765625 L 55.679688 -68.667969 C 55.679688 -72.507812 55.460938 -75.089844 55.019531 -76.410156 L 54.980469 -76.523438 L 54.949219 -76.644531 C 54.300781 -79.128906 53.082031 -81.105469 51.292969 -82.582031 C 49.382812 -84.152344 46.765625 -85.238281 43.4375 -85.832031 L 44.082031 -89.4375 L 43.597656 -85.804688 C 41.882812 -86.035156 40.515625 -86.046875 39.503906 -85.84375 C 38.933594 -85.730469 38.589844 -85.601562 38.464844 -85.453125 C 38.226562 -85.15625 38.085938 -84.917969 38.039062 -84.738281 C 38.035156 -84.726562 38.035156 -84.714844 38.039062 -84.710938 C 38.085938 -84.558594 38.226562 -84.351562 38.460938 -84.097656 C 38.847656 -83.675781 39.402344 -83.234375 40.128906 -82.769531 Z M 79.457031 -64.949219 C 77.050781 -53.453125 77.859375 -41.804688 81.882812 -30.003906 L 78.414062 -28.824219 L 74.753906 -28.898438 C 75.039062 -42.871094 76.039062 -56.703125 77.75 -70.390625 L 81.382812 -69.9375 L 78.792969 -67.347656 L 77.945312 -68.195312 L 80.535156 -70.785156 L 80.535156 -67.125 C 80.382812 -67.125 80.277344 -67.109375 80.214844 -67.082031 C 80.203125 -67.078125 80.183594 -67.0625 80.160156 -67.039062 C 79.875 -66.726562 79.648438 -66.078125 79.484375 -65.097656 L 79.472656 -65.023438 Z M 72.289062 -66.449219 L 75.871094 -65.699219 L 72.261719 -66.300781 C 72.660156 -68.710938 73.496094 -70.605469 74.761719 -71.988281 C 75.515625 -72.8125 76.398438 -73.433594 77.414062 -73.851562 C 78.371094 -74.25 79.414062 -74.449219 80.535156 -74.449219 L 82.050781 -74.449219 L 85.238281 -71.261719 L 85.015625 -69.484375 C 83.335938 -56.046875 82.355469 -42.46875 82.078125 -28.75 L 74.949219 -27.640625 C 70.496094 -40.707031 69.605469 -53.644531 72.289062 -66.449219 Z M 78.324219 -5.679688 C 75.628906 -5.433594 72.914062 -4.6875 70.183594 -3.449219 L 68.667969 -6.78125 L 69.917969 -10.222656 C 72.960938 -9.117188 75.859375 -8.148438 78.621094 -7.324219 L 77.566406 -3.816406 L 73.941406 -4.332031 C 74.199219 -6.140625 74.328125 -7.804688 74.328125 -9.324219 L 77.992188 -9.324219 Z M 77.660156 -12.972656 L 81.652344 -13.335938 L 81.652344 -9.324219 C 81.652344 -7.457031 81.5 -5.445312 81.191406 -3.296875 L 80.589844 0.914062 L 76.515625 -0.308594 C 73.621094 -1.175781 70.589844 -2.1875 67.414062 -3.339844 L 58.988281 -6.40625 L 67.152344 -10.117188 C 70.636719 -11.699219 74.140625 -12.652344 77.660156 -12.972656 Z M 77.660156 -12.972656 "/></g></g></g><g fill="#ffffff" fill-opacity="1"><g transform="translate(20.741545, 113.249995)"><g><path d="M 38.15625 -79.6875 C 34.195312 -82.226562 33.347656 -84.914062 35.609375 -87.75 C 37.015625 -89.4375 39.835938 -90 44.078125 -89.4375 C 51.992188 -88.03125 56.800781 -84.078125 58.5 -77.578125 C 59.0625 -75.878906 59.34375 -72.910156 59.34375 -68.671875 L 59.34375 -59.765625 C 58.78125 -47.898438 58.640625 -35.890625 58.921875 -23.734375 C 60.898438 -24.867188 62.878906 -25.859375 64.859375 -26.703125 C 65.140625 -27.835938 65.140625 -28.96875 64.859375 -30.09375 C 64.285156 -36.03125 64.144531 -43.238281 64.4375 -51.71875 C 65.28125 -61.039062 67.539062 -68.101562 71.21875 -72.90625 C 74.039062 -76.019531 77.144531 -77.71875 80.53125 -78 C 84.207031 -78.28125 87.601562 -76.722656 90.71875 -73.328125 C 95.238281 -68.242188 97.5 -57.789062 97.5 -41.96875 C 97.78125 -27.832031 97.921875 -13.703125 97.921875 0.421875 C 97.921875 8.335938 94.390625 12.296875 87.328125 12.296875 C 84.492188 12.296875 81.945312 11.585938 79.6875 10.171875 C 74.882812 7.066406 67.539062 3.109375 57.65625 -1.703125 C 47.195312 5.085938 38.859375 8.484375 32.640625 8.484375 C 27.835938 8.484375 23.597656 7.066406 19.921875 4.234375 C 16.242188 1.128906 13.703125 -2.679688 12.296875 -7.203125 C 11.160156 -10.878906 11.441406 -19.21875 13.140625 -32.21875 C 14.273438 -41.257812 15.40625 -49.59375 16.53125 -57.21875 C 12.289062 -58.914062 10.738281 -61.175781 11.875 -64 C 12.71875 -66.832031 15.257812 -67.960938 19.5 -67.390625 C 29.382812 -65.703125 33.90625 -59.207031 33.0625 -47.90625 C 32.21875 -37.726562 30.523438 -27.410156 27.984375 -16.953125 C 27.128906 -11.867188 27.550781 -8.898438 29.25 -8.046875 C 30.945312 -8.046875 32.925781 -8.753906 35.1875 -10.171875 C 36.3125 -11.015625 37.441406 -11.722656 38.578125 -12.296875 C 37.160156 -34.335938 37.722656 -56.097656 40.265625 -77.578125 C 39.421875 -78.421875 38.71875 -79.125 38.15625 -79.6875 Z M 75.875 -65.703125 C 73.332031 -53.546875 74.179688 -41.253906 78.421875 -28.828125 C 78.703125 -42.671875 79.691406 -56.375 81.390625 -69.9375 L 80.53125 -70.796875 C 77.988281 -70.796875 76.4375 -69.097656 75.875 -65.703125 Z M 78 -9.328125 C 74.882812 -9.046875 71.773438 -8.195312 68.671875 -6.78125 C 71.773438 -5.65625 74.742188 -4.664062 77.578125 -3.8125 C 77.859375 -5.789062 78 -7.628906 78 -9.328125 Z M 78 -9.328125 "/></g></g></g><g transform="matrix(1, 0, 0, 1, 2, 1)"><g clip-path="url(#ccf321f47c)"><g clip-path="url(#a4effc5f3e)"><g fill="#000000" fill-opacity="1"><g transform="translate(0.250001, 7.342385)"><g><path d="M 1 -1.859375 L 2.046875 -1.859375 L 2.046875 -2.765625 C 2.046875 -2.898438 2.050781 -3.054688 2.0625 -3.234375 C 2.070312 -3.421875 2.078125 -3.578125 2.078125 -3.703125 L 2.0625 -3.703125 C 2.007812 -3.585938 1.953125 -3.46875 1.890625 -3.34375 C 1.828125 -3.21875 1.765625 -3.09375 1.703125 -2.96875 Z M 3.421875 -1.859375 L 3.421875 -1.171875 L 2.875 -1.171875 L 2.875 0 L 2.046875 0 L 2.046875 -1.171875 L 0.125 -1.171875 L 0.125 -1.78125 L 1.8125 -4.515625 L 2.875 -4.515625 L 2.875 -1.859375 Z M 3.421875 -1.859375 "/></g></g></g></g><g fill="#000000" fill-opacity="1"><g transform="translate(3.839287, 7.342385)"><g><path d="M 0.984375 0.078125 C 0.828125 0.078125 0.695312 0.0234375 0.59375 -0.078125 C 0.488281 -0.191406 0.4375 -0.332031 0.4375 -0.5 C 0.4375 -0.664062 0.488281 -0.800781 0.59375 -0.90625 C 0.695312 -1.019531 0.828125 -1.078125 0.984375 -1.078125 C 1.148438 -1.078125 1.285156 -1.019531 1.390625 -0.90625 C 1.492188 -0.800781 1.546875 -0.664062 1.546875 -0.5 C 1.546875 -0.332031 1.492188 -0.191406 1.390625 -0.078125 C 1.285156 0.0234375 1.148438 0.078125 0.984375 0.078125 Z M 0.984375 0.078125 "/></g></g></g><g fill="#000000" fill-opacity="1"><g transform="translate(5.819792, 7.342385)"><g/></g></g><g fill="#000000" fill-opacity="1"><g transform="translate(7.203098, 7.342385)"><g><path d="M 4.8125 -4.4375 L 5.421875 -4.0625 C 5.390625 -4 5.363281 -3.925781 5.34375 -3.84375 C 5.320312 -3.769531 5.300781 -3.695312 5.28125 -3.625 C 5.238281 -3.425781 5.175781 -3.195312 5.09375 -2.9375 C 5.019531 -2.675781 4.921875 -2.410156 4.796875 -2.140625 C 4.679688 -1.878906 4.539062 -1.632812 4.375 -1.40625 C 4.09375 -1.039062 3.75 -0.710938 3.34375 -0.421875 C 2.9375 -0.140625 2.460938 0.0859375 1.921875 0.265625 L 1.25 -0.46875 C 1.65625 -0.5625 2.003906 -0.675781 2.296875 -0.8125 C 2.597656 -0.957031 2.859375 -1.117188 3.078125 -1.296875 C 3.296875 -1.484375 3.484375 -1.679688 3.640625 -1.890625 C 3.773438 -2.054688 3.890625 -2.238281 3.984375 -2.4375 C 4.085938 -2.632812 4.171875 -2.832031 4.234375 -3.03125 C 4.296875 -3.238281 4.335938 -3.429688 4.359375 -3.609375 L 1.515625 -3.609375 C 1.378906 -3.609375 1.242188 -3.601562 1.109375 -3.59375 C 0.972656 -3.59375 0.867188 -3.585938 0.796875 -3.578125 L 0.796875 -4.4375 C 0.890625 -4.4375 1.007812 -4.425781 1.15625 -4.40625 C 1.300781 -4.394531 1.421875 -4.390625 1.515625 -4.390625 L 4.34375 -4.390625 C 4.40625 -4.390625 4.476562 -4.390625 4.5625 -4.390625 C 4.65625 -4.398438 4.738281 -4.414062 4.8125 -4.4375 Z M 4.8125 -4.4375 "/></g></g></g><g fill="#000000" fill-opacity="1"><g transform="translate(13.296958, 7.342385)"><g><path d="M 2.484375 -2.40625 L 3.328125 -2.40625 C 3.316406 -2.113281 3.300781 -1.832031 3.28125 -1.5625 C 3.257812 -1.289062 3.203125 -1.023438 3.109375 -0.765625 C 3.023438 -0.515625 2.882812 -0.273438 2.6875 -0.046875 C 2.5 0.179688 2.222656 0.394531 1.859375 0.59375 L 1.21875 0.078125 C 1.300781 0.046875 1.378906 0.0078125 1.453125 -0.03125 C 1.535156 -0.0703125 1.625 -0.125 1.71875 -0.1875 C 1.945312 -0.34375 2.117188 -0.507812 2.234375 -0.6875 C 2.347656 -0.863281 2.425781 -1.054688 2.46875 -1.265625 C 2.507812 -1.472656 2.53125 -1.707031 2.53125 -1.96875 C 2.53125 -2.039062 2.523438 -2.113281 2.515625 -2.1875 C 2.503906 -2.257812 2.492188 -2.332031 2.484375 -2.40625 Z M 4.96875 -3.453125 L 5.421875 -3.046875 C 5.390625 -3.003906 5.351562 -2.957031 5.3125 -2.90625 C 5.28125 -2.863281 5.253906 -2.828125 5.234375 -2.796875 C 5.179688 -2.710938 5.109375 -2.601562 5.015625 -2.46875 C 4.921875 -2.34375 4.816406 -2.207031 4.703125 -2.0625 C 4.597656 -1.925781 4.484375 -1.796875 4.359375 -1.671875 C 4.242188 -1.546875 4.128906 -1.441406 4.015625 -1.359375 L 3.40625 -1.78125 C 3.53125 -1.863281 3.648438 -1.957031 3.765625 -2.0625 C 3.878906 -2.175781 3.984375 -2.289062 4.078125 -2.40625 C 4.171875 -2.519531 4.242188 -2.617188 4.296875 -2.703125 L 1.640625 -2.703125 C 1.453125 -2.703125 1.242188 -2.691406 1.015625 -2.671875 L 1.015625 -3.453125 C 1.109375 -3.441406 1.210938 -3.429688 1.328125 -3.421875 C 1.441406 -3.410156 1.546875 -3.40625 1.640625 -3.40625 L 4.46875 -3.40625 C 4.539062 -3.40625 4.628906 -3.40625 4.734375 -3.40625 C 4.835938 -3.414062 4.914062 -3.429688 4.96875 -3.453125 Z M 4.96875 -3.453125 "/></g></g></g><g fill="#000000" fill-opacity="1"><g transform="translate(19.390819, 7.342385)"><g><path d="M 4.984375 -4.09375 L 4.484375 -3.890625 C 4.429688 -4.015625 4.359375 -4.15625 4.265625 -4.3125 C 4.179688 -4.476562 4.097656 -4.617188 4.015625 -4.734375 L 4.5 -4.9375 C 4.550781 -4.863281 4.609375 -4.773438 4.671875 -4.671875 C 4.734375 -4.566406 4.789062 -4.460938 4.84375 -4.359375 C 4.90625 -4.265625 4.953125 -4.175781 4.984375 -4.09375 Z M 1.828125 -2.09375 L 1.828125 -0.96875 C 1.828125 -0.832031 1.859375 -0.738281 1.921875 -0.6875 C 1.984375 -0.644531 2.082031 -0.609375 2.21875 -0.578125 C 2.3125 -0.566406 2.414062 -0.554688 2.53125 -0.546875 C 2.65625 -0.546875 2.785156 -0.546875 2.921875 -0.546875 C 3.078125 -0.546875 3.25 -0.550781 3.4375 -0.5625 C 3.632812 -0.570312 3.832031 -0.582031 4.03125 -0.59375 C 4.226562 -0.613281 4.414062 -0.632812 4.59375 -0.65625 C 4.769531 -0.6875 4.921875 -0.71875 5.046875 -0.75 L 5.046875 0.140625 C 4.859375 0.160156 4.632812 0.179688 4.375 0.203125 C 4.125 0.222656 3.867188 0.238281 3.609375 0.25 C 3.347656 0.257812 3.101562 0.265625 2.875 0.265625 C 2.675781 0.265625 2.488281 0.253906 2.3125 0.234375 C 2.132812 0.222656 1.984375 0.207031 1.859375 0.1875 C 1.585938 0.144531 1.378906 0.0507812 1.234375 -0.09375 C 1.085938 -0.25 1.015625 -0.457031 1.015625 -0.71875 L 1.015625 -4.046875 C 1.015625 -4.109375 1.007812 -4.203125 1 -4.328125 C 1 -4.460938 0.988281 -4.578125 0.96875 -4.671875 L 1.875 -4.671875 C 1.851562 -4.578125 1.835938 -4.46875 1.828125 -4.34375 C 1.828125 -4.226562 1.828125 -4.128906 1.828125 -4.046875 L 1.828125 -2.890625 C 2.066406 -2.953125 2.3125 -3.019531 2.5625 -3.09375 C 2.820312 -3.164062 3.066406 -3.242188 3.296875 -3.328125 C 3.535156 -3.410156 3.75 -3.488281 3.9375 -3.5625 C 4.039062 -3.601562 4.144531 -3.648438 4.25 -3.703125 C 4.363281 -3.753906 4.476562 -3.816406 4.59375 -3.890625 L 4.921875 -3.125 C 4.804688 -3.070312 4.679688 -3.019531 4.546875 -2.96875 C 4.421875 -2.914062 4.304688 -2.867188 4.203125 -2.828125 C 4.003906 -2.753906 3.769531 -2.671875 3.5 -2.578125 C 3.226562 -2.484375 2.945312 -2.394531 2.65625 -2.3125 C 2.363281 -2.226562 2.085938 -2.15625 1.828125 -2.09375 Z M 4.734375 -5.015625 L 5.21875 -5.203125 C 5.269531 -5.128906 5.328125 -5.039062 5.390625 -4.9375 C 5.453125 -4.84375 5.507812 -4.742188 5.5625 -4.640625 C 5.625 -4.535156 5.671875 -4.445312 5.703125 -4.375 L 5.234375 -4.171875 C 5.160156 -4.304688 5.078125 -4.453125 4.984375 -4.609375 C 4.898438 -4.765625 4.816406 -4.898438 4.734375 -5.015625 Z M 4.734375 -5.015625 "/></g></g></g><g fill="#000000" fill-opacity="1"><g transform="translate(25.48468, 7.342385)"><g><path d="M 5.3125 0.140625 L 4.4375 0.140625 C 4.4375 0.0859375 4.4375 0.0351562 4.4375 -0.015625 C 4.4375 -0.0664062 4.4375 -0.125 4.4375 -0.1875 L 1.65625 -0.1875 C 1.539062 -0.1875 1.40625 -0.179688 1.25 -0.171875 C 1.101562 -0.160156 0.976562 -0.148438 0.875 -0.140625 L 0.875 -1.015625 C 0.976562 -1.003906 1.097656 -0.992188 1.234375 -0.984375 C 1.367188 -0.984375 1.503906 -0.984375 1.640625 -0.984375 L 4.453125 -0.984375 L 4.453125 -3.5 L 1.71875 -3.5 C 1.582031 -3.5 1.441406 -3.492188 1.296875 -3.484375 C 1.148438 -3.484375 1.035156 -3.484375 0.953125 -3.484375 L 0.953125 -4.328125 C 1.066406 -4.316406 1.191406 -4.304688 1.328125 -4.296875 C 1.472656 -4.296875 1.601562 -4.296875 1.71875 -4.296875 L 4.78125 -4.296875 C 4.863281 -4.296875 4.957031 -4.296875 5.0625 -4.296875 C 5.175781 -4.296875 5.257812 -4.296875 5.3125 -4.296875 C 5.3125 -4.234375 5.304688 -4.144531 5.296875 -4.03125 C 5.296875 -3.925781 5.296875 -3.828125 5.296875 -3.734375 L 5.296875 -0.578125 C 5.296875 -0.472656 5.296875 -0.347656 5.296875 -0.203125 C 5.304688 -0.0664062 5.3125 0.046875 5.3125 0.140625 Z M 5.3125 0.140625 "/></g></g></g><g fill="#000000" fill-opacity="1"><g transform="translate(31.57854, 7.342385)"><g><path d="M 1.46875 -4.625 C 1.570312 -4.550781 1.691406 -4.460938 1.828125 -4.359375 C 1.972656 -4.253906 2.125 -4.140625 2.28125 -4.015625 C 2.4375 -3.890625 2.578125 -3.769531 2.703125 -3.65625 C 2.835938 -3.539062 2.953125 -3.4375 3.046875 -3.34375 L 2.421875 -2.703125 C 2.335938 -2.785156 2.234375 -2.882812 2.109375 -3 C 1.984375 -3.125 1.847656 -3.25 1.703125 -3.375 C 1.554688 -3.5 1.410156 -3.617188 1.265625 -3.734375 C 1.128906 -3.847656 1.003906 -3.941406 0.890625 -4.015625 Z M 0.703125 -0.578125 C 1.179688 -0.640625 1.613281 -0.742188 2 -0.890625 C 2.394531 -1.035156 2.742188 -1.195312 3.046875 -1.375 C 3.390625 -1.582031 3.703125 -1.816406 3.984375 -2.078125 C 4.273438 -2.335938 4.523438 -2.609375 4.734375 -2.890625 C 4.953125 -3.179688 5.128906 -3.460938 5.265625 -3.734375 L 5.734375 -2.875 C 5.503906 -2.46875 5.191406 -2.066406 4.796875 -1.671875 C 4.410156 -1.273438 3.972656 -0.925781 3.484375 -0.625 C 3.171875 -0.4375 2.820312 -0.265625 2.4375 -0.109375 C 2.050781 0.046875 1.644531 0.160156 1.21875 0.234375 Z M 0.703125 -0.578125 "/></g></g></g><g fill="#000000" fill-opacity="1"><g transform="translate(37.672401, 7.342385)"><g/></g></g><g fill="#000000" fill-opacity="1"><g transform="translate(39.055707, 7.342385)"><g><path d="M 5.09375 -4.328125 L 4.875 -4.234375 L 5.25 -3.984375 C 5.21875 -3.929688 5.191406 -3.863281 5.171875 -3.78125 C 5.160156 -3.695312 5.144531 -3.625 5.125 -3.5625 C 5.070312 -3.363281 5.003906 -3.132812 4.921875 -2.875 C 4.847656 -2.613281 4.75 -2.347656 4.625 -2.078125 C 4.507812 -1.816406 4.367188 -1.570312 4.203125 -1.34375 C 3.929688 -0.976562 3.59375 -0.648438 3.1875 -0.359375 C 2.78125 -0.0664062 2.300781 0.160156 1.75 0.328125 L 1.09375 -0.390625 C 1.5 -0.484375 1.847656 -0.601562 2.140625 -0.75 C 2.429688 -0.894531 2.6875 -1.054688 2.90625 -1.234375 C 3.125 -1.421875 3.316406 -1.617188 3.484375 -1.828125 C 3.617188 -1.992188 3.734375 -2.175781 3.828125 -2.375 C 3.921875 -2.570312 4 -2.769531 4.0625 -2.96875 C 4.125 -3.175781 4.171875 -3.367188 4.203125 -3.546875 L 1.359375 -3.546875 C 1.222656 -3.546875 1.085938 -3.539062 0.953125 -3.53125 C 0.816406 -3.53125 0.710938 -3.523438 0.640625 -3.515625 L 0.640625 -4.375 C 0.722656 -4.363281 0.835938 -4.351562 0.984375 -4.34375 C 1.128906 -4.332031 1.253906 -4.328125 1.359375 -4.328125 L 4.1875 -4.328125 C 4.21875 -4.328125 4.257812 -4.328125 4.3125 -4.328125 C 4.363281 -4.328125 4.414062 -4.332031 4.46875 -4.34375 C 4.414062 -4.4375 4.359375 -4.535156 4.296875 -4.640625 C 4.234375 -4.742188 4.175781 -4.84375 4.125 -4.9375 L 4.625 -5.140625 C 4.707031 -5.023438 4.789062 -4.890625 4.875 -4.734375 C 4.96875 -4.578125 5.039062 -4.441406 5.09375 -4.328125 Z M 4.96875 -5.078125 L 5.484375 -5.296875 C 5.535156 -5.210938 5.585938 -5.125 5.640625 -5.03125 C 5.703125 -4.9375 5.757812 -4.835938 5.8125 -4.734375 C 5.875 -4.640625 5.925781 -4.554688 5.96875 -4.484375 L 5.453125 -4.265625 C 5.390625 -4.390625 5.3125 -4.53125 5.21875 -4.6875 C 5.132812 -4.84375 5.050781 -4.972656 4.96875 -5.078125 Z M 4.96875 -5.078125 "/></g></g></g><g fill="#000000" fill-opacity="1"><g transform="translate(45.149567, 7.342385)"><g><path d="M 4.96875 -3.234375 L 5.515625 -2.90625 C 5.492188 -2.863281 5.46875 -2.816406 5.4375 -2.765625 C 5.414062 -2.722656 5.398438 -2.6875 5.390625 -2.65625 C 5.304688 -2.351562 5.191406 -2.054688 5.046875 -1.765625 C 4.898438 -1.484375 4.710938 -1.21875 4.484375 -0.96875 C 4.179688 -0.625 3.84375 -0.34375 3.46875 -0.125 C 3.09375 0.0820312 2.707031 0.242188 2.3125 0.359375 L 1.703125 -0.328125 C 2.160156 -0.421875 2.566406 -0.5625 2.921875 -0.75 C 3.285156 -0.945312 3.585938 -1.164062 3.828125 -1.40625 C 3.992188 -1.570312 4.125 -1.742188 4.21875 -1.921875 C 4.320312 -2.109375 4.398438 -2.285156 4.453125 -2.453125 L 1.5 -2.453125 C 1.425781 -2.453125 1.320312 -2.445312 1.1875 -2.4375 C 1.0625 -2.4375 0.929688 -2.429688 0.796875 -2.421875 L 0.796875 -3.21875 C 0.929688 -3.207031 1.054688 -3.195312 1.171875 -3.1875 C 1.296875 -3.1875 1.40625 -3.1875 1.5 -3.1875 L 4.515625 -3.1875 C 4.722656 -3.1875 4.875 -3.203125 4.96875 -3.234375 Z M 1.359375 -3.890625 L 1.359375 -4.671875 C 1.441406 -4.660156 1.539062 -4.648438 1.65625 -4.640625 C 1.78125 -4.640625 1.894531 -4.640625 2 -4.640625 L 4.34375 -4.640625 C 4.4375 -4.640625 4.546875 -4.640625 4.671875 -4.640625 C 4.804688 -4.648438 4.914062 -4.660156 5 -4.671875 L 5 -3.890625 C 4.914062 -3.898438 4.804688 -3.90625 4.671875 -3.90625 C 4.546875 -3.90625 4.429688 -3.90625 4.328125 -3.90625 L 2 -3.90625 C 1.894531 -3.90625 1.785156 -3.90625 1.671875 -3.90625 C 1.554688 -3.90625 1.453125 -3.898438 1.359375 -3.890625 Z M 1.359375 -3.890625 "/></g></g></g><g fill="#000000" fill-opacity="1"><g transform="translate(51.243428, 7.342385)"><g><path d="M 5.015625 -4.015625 L 5.546875 -3.6875 C 5.515625 -3.625 5.488281 -3.539062 5.46875 -3.4375 C 5.445312 -3.34375 5.429688 -3.265625 5.421875 -3.203125 C 5.367188 -2.910156 5.296875 -2.617188 5.203125 -2.328125 C 5.117188 -2.035156 5 -1.753906 4.84375 -1.484375 C 4.601562 -1.023438 4.265625 -0.640625 3.828125 -0.328125 C 3.398438 -0.015625 2.910156 0.207031 2.359375 0.34375 L 1.734375 -0.390625 C 1.867188 -0.410156 2.015625 -0.441406 2.171875 -0.484375 C 2.328125 -0.523438 2.46875 -0.570312 2.59375 -0.625 C 2.84375 -0.71875 3.09375 -0.851562 3.34375 -1.03125 C 3.59375 -1.207031 3.800781 -1.414062 3.96875 -1.65625 C 4.125 -1.882812 4.242188 -2.132812 4.328125 -2.40625 C 4.410156 -2.6875 4.472656 -2.960938 4.515625 -3.234375 L 1.5 -3.234375 L 1.5 -2.34375 C 1.5 -2.269531 1.5 -2.191406 1.5 -2.109375 C 1.5 -2.023438 1.503906 -1.953125 1.515625 -1.890625 L 0.671875 -1.890625 C 0.679688 -1.960938 0.6875 -2.046875 0.6875 -2.140625 C 0.695312 -2.234375 0.703125 -2.320312 0.703125 -2.40625 L 0.703125 -3.453125 C 0.703125 -3.523438 0.695312 -3.613281 0.6875 -3.71875 C 0.6875 -3.820312 0.679688 -3.910156 0.671875 -3.984375 C 0.773438 -3.960938 0.875 -3.953125 0.96875 -3.953125 C 1.070312 -3.953125 1.179688 -3.953125 1.296875 -3.953125 L 2.59375 -3.953125 L 2.59375 -4.421875 C 2.59375 -4.503906 2.585938 -4.582031 2.578125 -4.65625 C 2.578125 -4.738281 2.566406 -4.847656 2.546875 -4.984375 L 3.484375 -4.984375 C 3.472656 -4.847656 3.460938 -4.738281 3.453125 -4.65625 C 3.441406 -4.582031 3.4375 -4.503906 3.4375 -4.421875 L 3.4375 -3.953125 L 4.5 -3.953125 C 4.632812 -3.953125 4.738281 -3.957031 4.8125 -3.96875 C 4.894531 -3.976562 4.960938 -3.992188 5.015625 -4.015625 Z M 5.015625 -4.015625 "/></g></g></g><g fill="#000000" fill-opacity="1"><g transform="translate(57.337292, 7.342385)"><g><path d="M 5.9375 -4.109375 L 5.515625 -3.96875 C 5.472656 -4.101562 5.425781 -4.242188 5.375 -4.390625 C 5.320312 -4.546875 5.257812 -4.679688 5.1875 -4.796875 L 5.609375 -4.9375 C 5.660156 -4.8125 5.71875 -4.671875 5.78125 -4.515625 C 5.84375 -4.359375 5.894531 -4.222656 5.9375 -4.109375 Z M 5.296875 -3.90625 L 4.875 -3.765625 C 4.832031 -3.898438 4.785156 -4.039062 4.734375 -4.1875 C 4.679688 -4.34375 4.625 -4.484375 4.5625 -4.609375 L 4.984375 -4.734375 C 5.035156 -4.617188 5.09375 -4.476562 5.15625 -4.3125 C 5.21875 -4.15625 5.265625 -4.019531 5.296875 -3.90625 Z M 4.453125 -3.546875 L 4.90625 -3.546875 C 5.070312 -3.546875 5.203125 -3.550781 5.296875 -3.5625 C 5.398438 -3.570312 5.492188 -3.582031 5.578125 -3.59375 L 5.578125 -2.78125 C 5.441406 -2.789062 5.21875 -2.796875 4.90625 -2.796875 L 4.453125 -2.796875 L 4.453125 -2.609375 C 4.453125 -2.222656 4.425781 -1.875 4.375 -1.5625 C 4.320312 -1.257812 4.226562 -0.984375 4.09375 -0.734375 C 3.957031 -0.484375 3.769531 -0.257812 3.53125 -0.0625 C 3.289062 0.132812 2.988281 0.316406 2.625 0.484375 L 1.96875 -0.140625 C 2.257812 -0.242188 2.507812 -0.359375 2.71875 -0.484375 C 2.9375 -0.609375 3.113281 -0.757812 3.25 -0.9375 C 3.394531 -1.125 3.5 -1.347656 3.5625 -1.609375 C 3.625 -1.878906 3.65625 -2.203125 3.65625 -2.578125 L 3.65625 -2.796875 L 2.21875 -2.796875 L 2.21875 -1.96875 C 2.21875 -1.832031 2.21875 -1.707031 2.21875 -1.59375 C 2.226562 -1.476562 2.238281 -1.390625 2.25 -1.328125 L 1.390625 -1.328125 C 1.398438 -1.390625 1.40625 -1.476562 1.40625 -1.59375 C 1.414062 -1.707031 1.421875 -1.832031 1.421875 -1.96875 L 1.421875 -2.796875 L 0.90625 -2.796875 C 0.757812 -2.796875 0.628906 -2.796875 0.515625 -2.796875 C 0.410156 -2.796875 0.320312 -2.789062 0.25 -2.78125 L 0.25 -3.609375 C 0.300781 -3.597656 0.382812 -3.582031 0.5 -3.5625 C 0.625 -3.550781 0.757812 -3.546875 0.90625 -3.546875 L 1.421875 -3.546875 L 1.421875 -4.15625 C 1.421875 -4.269531 1.414062 -4.375 1.40625 -4.46875 C 1.40625 -4.570312 1.398438 -4.648438 1.390625 -4.703125 L 2.25 -4.703125 C 2.25 -4.648438 2.242188 -4.570312 2.234375 -4.46875 C 2.222656 -4.375 2.21875 -4.269531 2.21875 -4.15625 L 2.21875 -3.546875 L 3.65625 -3.546875 L 3.65625 -4.1875 C 3.65625 -4.3125 3.648438 -4.421875 3.640625 -4.515625 C 3.640625 -4.617188 3.632812 -4.695312 3.625 -4.75 L 4.5 -4.75 C 4.488281 -4.6875 4.476562 -4.609375 4.46875 -4.515625 C 4.457031 -4.421875 4.453125 -4.3125 4.453125 -4.1875 Z M 4.453125 -3.546875 "/></g></g></g><g fill="#000000" fill-opacity="1"><g transform="translate(63.431146, 7.342385)"><g><path d="M 4.859375 -4.265625 L 5.484375 -3.890625 C 5.441406 -3.828125 5.398438 -3.757812 5.359375 -3.6875 C 5.328125 -3.613281 5.300781 -3.535156 5.28125 -3.453125 C 5.195312 -3.222656 5.082031 -2.957031 4.9375 -2.65625 C 4.800781 -2.363281 4.632812 -2.070312 4.4375 -1.78125 C 4.550781 -1.71875 4.65625 -1.648438 4.75 -1.578125 C 4.851562 -1.515625 4.941406 -1.453125 5.015625 -1.390625 L 4.46875 -0.6875 C 4.394531 -0.75 4.3125 -0.816406 4.21875 -0.890625 C 4.125 -0.960938 4.019531 -1.035156 3.90625 -1.109375 C 3.625 -0.816406 3.300781 -0.539062 2.9375 -0.28125 C 2.570312 -0.0195312 2.144531 0.207031 1.65625 0.40625 L 0.9375 -0.21875 C 1.476562 -0.382812 1.929688 -0.585938 2.296875 -0.828125 C 2.660156 -1.066406 2.96875 -1.316406 3.21875 -1.578125 C 3.007812 -1.710938 2.804688 -1.835938 2.609375 -1.953125 C 2.410156 -2.078125 2.234375 -2.179688 2.078125 -2.265625 L 2.59375 -2.859375 C 2.757812 -2.773438 2.941406 -2.675781 3.140625 -2.5625 C 3.335938 -2.445312 3.535156 -2.332031 3.734375 -2.21875 C 3.890625 -2.425781 4.023438 -2.644531 4.140625 -2.875 C 4.253906 -3.113281 4.332031 -3.328125 4.375 -3.515625 L 2.625 -3.515625 C 2.414062 -3.222656 2.171875 -2.9375 1.890625 -2.65625 C 1.617188 -2.382812 1.328125 -2.144531 1.015625 -1.9375 L 0.359375 -2.4375 C 0.710938 -2.65625 1.015625 -2.890625 1.265625 -3.140625 C 1.523438 -3.390625 1.738281 -3.628906 1.90625 -3.859375 C 2.070312 -4.085938 2.203125 -4.289062 2.296875 -4.46875 C 2.347656 -4.539062 2.398438 -4.640625 2.453125 -4.765625 C 2.503906 -4.890625 2.546875 -5.003906 2.578125 -5.109375 L 3.46875 -4.828125 C 3.382812 -4.722656 3.304688 -4.609375 3.234375 -4.484375 C 3.171875 -4.367188 3.117188 -4.273438 3.078125 -4.203125 L 4.328125 -4.203125 C 4.421875 -4.203125 4.515625 -4.207031 4.609375 -4.21875 C 4.710938 -4.226562 4.796875 -4.242188 4.859375 -4.265625 Z M 4.859375 -4.265625 "/></g></g></g><g fill="#000000" fill-opacity="1"><g transform="translate(69.525013, 7.342385)"><g><path d="M 5.09375 -4.328125 L 4.875 -4.234375 L 5.25 -3.984375 C 5.21875 -3.929688 5.191406 -3.863281 5.171875 -3.78125 C 5.160156 -3.695312 5.144531 -3.625 5.125 -3.5625 C 5.070312 -3.363281 5.003906 -3.132812 4.921875 -2.875 C 4.847656 -2.613281 4.75 -2.347656 4.625 -2.078125 C 4.507812 -1.816406 4.367188 -1.570312 4.203125 -1.34375 C 3.929688 -0.976562 3.59375 -0.648438 3.1875 -0.359375 C 2.78125 -0.0664062 2.300781 0.160156 1.75 0.328125 L 1.09375 -0.390625 C 1.5 -0.484375 1.847656 -0.601562 2.140625 -0.75 C 2.429688 -0.894531 2.6875 -1.054688 2.90625 -1.234375 C 3.125 -1.421875 3.316406 -1.617188 3.484375 -1.828125 C 3.617188 -1.992188 3.734375 -2.175781 3.828125 -2.375 C 3.921875 -2.570312 4 -2.769531 4.0625 -2.96875 C 4.125 -3.175781 4.171875 -3.367188 4.203125 -3.546875 L 1.359375 -3.546875 C 1.222656 -3.546875 1.085938 -3.539062 0.953125 -3.53125 C 0.816406 -3.53125 0.710938 -3.523438 0.640625 -3.515625 L 0.640625 -4.375 C 0.722656 -4.363281 0.835938 -4.351562 0.984375 -4.34375 C 1.128906 -4.332031 1.253906 -4.328125 1.359375 -4.328125 L 4.1875 -4.328125 C 4.21875 -4.328125 4.257812 -4.328125 4.3125 -4.328125 C 4.363281 -4.328125 4.414062 -4.332031 4.46875 -4.34375 C 4.414062 -4.4375 4.359375 -4.535156 4.296875 -4.640625 C 4.234375 -4.742188 4.175781 -4.84375 4.125 -4.9375 L 4.625 -5.140625 C 4.707031 -5.023438 4.789062 -4.890625 4.875 -4.734375 C 4.96875 -4.578125 5.039062 -4.441406 5.09375 -4.328125 Z M 4.96875 -5.078125 L 5.484375 -5.296875 C 5.535156 -5.210938 5.585938 -5.125 5.640625 -5.03125 C 5.703125 -4.9375 5.757812 -4.835938 5.8125 -4.734375 C 5.875 -4.640625 5.925781 -4.554688 5.96875 -4.484375 L 5.453125 -4.265625 C 5.390625 -4.390625 5.3125 -4.53125 5.21875 -4.6875 C 5.132812 -4.84375 5.050781 -4.972656 4.96875 -5.078125 Z M 4.96875 -5.078125 "/></g></g></g><g fill="#000000" fill-opacity="1"><g transform="translate(75.618867, 7.342385)"><g><path d="M 3.46875 -1.9375 L 4.765625 -1.9375 L 4.765625 -2.6875 L 3.46875 -2.6875 Z M 1.578125 -1.9375 L 2.734375 -1.9375 L 2.734375 -2.6875 L 1.59375 -2.6875 L 1.59375 -2.578125 C 1.59375 -2.367188 1.585938 -2.15625 1.578125 -1.9375 Z M 2.734375 -4.0625 L 1.59375 -4.0625 L 1.59375 -3.359375 L 2.734375 -3.359375 Z M 4.765625 -3.359375 L 4.765625 -4.0625 L 3.46875 -4.0625 L 3.46875 -3.359375 Z M 5.484375 -4.75 L 5.484375 -0.328125 C 5.484375 -0.128906 5.457031 0.0195312 5.40625 0.125 C 5.351562 0.226562 5.269531 0.304688 5.15625 0.359375 C 5.019531 0.421875 4.859375 0.457031 4.671875 0.46875 C 4.484375 0.488281 4.253906 0.5 3.984375 0.5 C 3.960938 0.394531 3.925781 0.273438 3.875 0.140625 C 3.832031 0.00390625 3.789062 -0.109375 3.75 -0.203125 C 3.863281 -0.191406 3.976562 -0.1875 4.09375 -0.1875 C 4.207031 -0.1875 4.3125 -0.1875 4.40625 -0.1875 C 4.5 -0.1875 4.5625 -0.1875 4.59375 -0.1875 C 4.707031 -0.1875 4.765625 -0.234375 4.765625 -0.328125 L 4.765625 -1.25 L 3.46875 -1.25 L 3.46875 0.453125 L 2.734375 0.453125 L 2.734375 -1.25 L 1.5 -1.25 C 1.445312 -0.914062 1.359375 -0.585938 1.234375 -0.265625 C 1.117188 0.046875 0.953125 0.320312 0.734375 0.5625 C 0.691406 0.519531 0.632812 0.460938 0.5625 0.390625 C 0.5 0.328125 0.429688 0.269531 0.359375 0.21875 C 0.285156 0.164062 0.21875 0.125 0.15625 0.09375 C 0.320312 -0.09375 0.453125 -0.296875 0.546875 -0.515625 C 0.640625 -0.734375 0.707031 -0.957031 0.75 -1.1875 C 0.800781 -1.425781 0.832031 -1.664062 0.84375 -1.90625 C 0.863281 -2.144531 0.875 -2.367188 0.875 -2.578125 L 0.875 -4.75 Z M 5.484375 -4.75 "/></g></g></g><g fill="#000000" fill-opacity="1"><g transform="translate(81.712727, 7.342385)"><g><path d="M 5.234375 0.609375 C 5.015625 0.390625 4.816406 0.140625 4.640625 -0.140625 C 4.460938 -0.429688 4.316406 -0.753906 4.203125 -1.109375 C 4.097656 -1.472656 4.046875 -1.875 4.046875 -2.3125 C 4.046875 -2.75 4.097656 -3.144531 4.203125 -3.5 C 4.316406 -3.863281 4.460938 -4.191406 4.640625 -4.484375 C 4.816406 -4.773438 5.015625 -5.023438 5.234375 -5.234375 L 5.8125 -4.984375 C 5.613281 -4.765625 5.429688 -4.519531 5.265625 -4.25 C 5.097656 -3.988281 4.96875 -3.695312 4.875 -3.375 C 4.78125 -3.0625 4.734375 -2.707031 4.734375 -2.3125 C 4.734375 -1.925781 4.78125 -1.570312 4.875 -1.25 C 4.96875 -0.925781 5.097656 -0.628906 5.265625 -0.359375 C 5.429688 -0.0976562 5.613281 0.140625 5.8125 0.359375 Z M 5.234375 0.609375 "/></g></g></g><g fill="#000000" fill-opacity="1"><g transform="translate(87.806588, 7.342385)"><g><path d="M 3.609375 -0.40625 L 5.8125 -0.40625 L 5.8125 0.296875 L 0.28125 0.296875 L 0.28125 -0.40625 L 1.03125 -0.40625 L 1.03125 -3.109375 L 1.78125 -3.109375 L 1.78125 -0.40625 L 2.84375 -0.40625 L 2.84375 -4.0625 L 0.5 -4.0625 L 0.5 -4.765625 L 5.65625 -4.765625 L 5.65625 -4.0625 L 3.609375 -4.0625 L 3.609375 -2.71875 L 5.34375 -2.71875 L 5.34375 -2.015625 L 3.609375 -2.015625 Z M 3.609375 -0.40625 "/></g></g></g><g fill="#000000" fill-opacity="1"><g transform="translate(93.900449, 7.342385)"><g><path d="M 5.796875 -3.5 L 2.84375 -3.5 C 2.832031 -3.363281 2.820312 -3.226562 2.8125 -3.09375 C 2.800781 -2.96875 2.789062 -2.835938 2.78125 -2.703125 L 5.125 -2.703125 C 5.125 -2.703125 5.125 -2.679688 5.125 -2.640625 C 5.125 -2.609375 5.125 -2.566406 5.125 -2.515625 C 5.125 -2.460938 5.117188 -2.421875 5.109375 -2.390625 C 5.066406 -1.835938 5.023438 -1.382812 4.984375 -1.03125 C 4.941406 -0.675781 4.890625 -0.398438 4.828125 -0.203125 C 4.773438 -0.015625 4.707031 0.125 4.625 0.21875 C 4.53125 0.3125 4.429688 0.378906 4.328125 0.421875 C 4.234375 0.460938 4.113281 0.488281 3.96875 0.5 C 3.851562 0.507812 3.703125 0.515625 3.515625 0.515625 C 3.328125 0.515625 3.128906 0.507812 2.921875 0.5 C 2.921875 0.394531 2.894531 0.273438 2.84375 0.140625 C 2.789062 0.00390625 2.734375 -0.113281 2.671875 -0.21875 C 2.878906 -0.195312 3.078125 -0.179688 3.265625 -0.171875 C 3.460938 -0.171875 3.601562 -0.171875 3.6875 -0.171875 C 3.757812 -0.171875 3.816406 -0.175781 3.859375 -0.1875 C 3.910156 -0.195312 3.953125 -0.21875 3.984375 -0.25 C 4.066406 -0.320312 4.132812 -0.492188 4.1875 -0.765625 C 4.25 -1.046875 4.300781 -1.460938 4.34375 -2.015625 L 2.65625 -2.015625 C 2.582031 -1.679688 2.46875 -1.351562 2.3125 -1.03125 C 2.164062 -0.707031 1.960938 -0.410156 1.703125 -0.140625 C 1.441406 0.128906 1.109375 0.367188 0.703125 0.578125 C 0.648438 0.472656 0.570312 0.363281 0.46875 0.25 C 0.375 0.132812 0.28125 0.0351562 0.1875 -0.046875 C 0.601562 -0.234375 0.929688 -0.457031 1.171875 -0.71875 C 1.410156 -0.976562 1.585938 -1.257812 1.703125 -1.5625 C 1.828125 -1.863281 1.910156 -2.179688 1.953125 -2.515625 C 1.992188 -2.847656 2.023438 -3.175781 2.046875 -3.5 L 0.296875 -3.5 L 0.296875 -4.1875 L 2.640625 -4.1875 L 2.640625 -5.1875 L 3.390625 -5.1875 L 3.390625 -4.1875 L 5.796875 -4.1875 Z M 5.796875 -3.5 "/></g></g></g><g fill="#000000" fill-opacity="1"><g transform="translate(99.994309, 7.342385)"><g><path d="M 5 -5.078125 L 5.6875 -4.796875 C 5.457031 -4.492188 5.1875 -4.210938 4.875 -3.953125 C 4.5625 -3.703125 4.25 -3.484375 3.9375 -3.296875 C 3.882812 -3.378906 3.8125 -3.46875 3.71875 -3.5625 C 3.625 -3.664062 3.53125 -3.75 3.4375 -3.8125 C 3.625 -3.90625 3.816406 -4.015625 4.015625 -4.140625 C 4.210938 -4.273438 4.394531 -4.421875 4.5625 -4.578125 C 4.738281 -4.742188 4.882812 -4.910156 5 -5.078125 Z M 5.125 -3.40625 L 5.78125 -3.125 C 5.550781 -2.8125 5.273438 -2.515625 4.953125 -2.234375 C 4.640625 -1.960938 4.328125 -1.734375 4.015625 -1.546875 C 3.960938 -1.617188 3.890625 -1.703125 3.796875 -1.796875 C 3.703125 -1.898438 3.609375 -1.984375 3.515625 -2.046875 C 3.703125 -2.148438 3.894531 -2.273438 4.09375 -2.421875 C 4.300781 -2.566406 4.492188 -2.722656 4.671875 -2.890625 C 4.859375 -3.054688 5.007812 -3.226562 5.125 -3.40625 Z M 1.578125 -2.828125 L 2.296875 -2.828125 L 2.296875 -4.125 L 1.578125 -4.125 Z M 3.578125 -2.15625 L 3 -2.15625 L 3 0.53125 L 2.296875 0.53125 L 2.296875 -2.15625 L 1.578125 -2.15625 C 1.566406 -1.820312 1.535156 -1.492188 1.484375 -1.171875 C 1.429688 -0.847656 1.34375 -0.535156 1.21875 -0.234375 C 1.09375 0.0546875 0.910156 0.328125 0.671875 0.578125 C 0.628906 0.523438 0.578125 0.46875 0.515625 0.40625 C 0.453125 0.34375 0.382812 0.28125 0.3125 0.21875 C 0.25 0.164062 0.191406 0.117188 0.140625 0.078125 C 0.328125 -0.128906 0.472656 -0.351562 0.578125 -0.59375 C 0.691406 -0.832031 0.769531 -1.082031 0.8125 -1.34375 C 0.863281 -1.613281 0.894531 -1.882812 0.90625 -2.15625 L 0.203125 -2.15625 L 0.203125 -2.828125 L 0.90625 -2.828125 L 0.90625 -4.125 L 0.3125 -4.125 L 0.3125 -4.8125 L 3.5 -4.8125 L 3.5 -4.125 L 3 -4.125 L 3 -2.828125 L 3.578125 -2.828125 Z M 5.234375 -1.796875 L 5.921875 -1.515625 C 5.660156 -1.078125 5.335938 -0.6875 4.953125 -0.34375 C 4.566406 0 4.15625 0.289062 3.71875 0.53125 C 3.65625 0.4375 3.578125 0.332031 3.484375 0.21875 C 3.390625 0.101562 3.296875 0.0078125 3.203125 -0.0625 C 3.472656 -0.1875 3.734375 -0.332031 3.984375 -0.5 C 4.242188 -0.675781 4.476562 -0.875 4.6875 -1.09375 C 4.90625 -1.3125 5.085938 -1.546875 5.234375 -1.796875 Z M 5.234375 -1.796875 "/></g></g></g><g fill="#000000" fill-opacity="1"><g transform="translate(106.08817, 7.342385)"><g><path d="M 0.859375 -5.234375 C 1.078125 -5.023438 1.273438 -4.773438 1.453125 -4.484375 C 1.640625 -4.191406 1.785156 -3.863281 1.890625 -3.5 C 1.992188 -3.144531 2.046875 -2.75 2.046875 -2.3125 C 2.046875 -1.875 1.992188 -1.472656 1.890625 -1.109375 C 1.785156 -0.753906 1.640625 -0.429688 1.453125 -0.140625 C 1.273438 0.140625 1.078125 0.390625 0.859375 0.609375 L 0.28125 0.359375 C 0.476562 0.140625 0.660156 -0.0976562 0.828125 -0.359375 C 0.992188 -0.628906 1.125 -0.925781 1.21875 -1.25 C 1.3125 -1.570312 1.359375 -1.925781 1.359375 -2.3125 C 1.359375 -2.707031 1.3125 -3.0625 1.21875 -3.375 C 1.125 -3.695312 0.992188 -3.988281 0.828125 -4.25 C 0.660156 -4.519531 0.476562 -4.765625 0.28125 -4.984375 Z M 0.859375 -5.234375 "/></g></g></g><g clip-path="url(#ecc0046dd5)"><g fill="#000000" fill-opacity="1"><g transform="translate(0.250001, 15.696529)"><g><path d="M 1.671875 0.078125 C 1.316406 0.078125 1.015625 0.0195312 0.765625 -0.09375 C 0.515625 -0.21875 0.3125 -0.367188 0.15625 -0.546875 L 0.578125 -1.109375 C 0.710938 -0.972656 0.863281 -0.859375 1.03125 -0.765625 C 1.195312 -0.679688 1.378906 -0.640625 1.578125 -0.640625 C 1.804688 -0.640625 1.992188 -0.691406 2.140625 -0.796875 C 2.285156 -0.910156 2.359375 -1.070312 2.359375 -1.28125 C 2.359375 -1.425781 2.320312 -1.550781 2.25 -1.65625 C 2.175781 -1.757812 2.050781 -1.84375 1.875 -1.90625 C 1.695312 -1.96875 1.441406 -2 1.109375 -2 L 1.109375 -2.640625 C 1.378906 -2.640625 1.59375 -2.664062 1.75 -2.71875 C 1.914062 -2.78125 2.03125 -2.863281 2.09375 -2.96875 C 2.164062 -3.070312 2.203125 -3.191406 2.203125 -3.328125 C 2.203125 -3.503906 2.148438 -3.640625 2.046875 -3.734375 C 1.941406 -3.835938 1.796875 -3.890625 1.609375 -3.890625 C 1.441406 -3.890625 1.289062 -3.851562 1.15625 -3.78125 C 1.019531 -3.707031 0.882812 -3.609375 0.75 -3.484375 L 0.296875 -4.046875 C 0.484375 -4.210938 0.6875 -4.34375 0.90625 -4.4375 C 1.132812 -4.539062 1.378906 -4.59375 1.640625 -4.59375 C 2.078125 -4.59375 2.429688 -4.488281 2.703125 -4.28125 C 2.972656 -4.070312 3.109375 -3.773438 3.109375 -3.390625 C 3.109375 -3.148438 3.039062 -2.941406 2.90625 -2.765625 C 2.78125 -2.585938 2.597656 -2.453125 2.359375 -2.359375 L 2.359375 -2.328125 C 2.609375 -2.265625 2.816406 -2.140625 2.984375 -1.953125 C 3.160156 -1.765625 3.25 -1.519531 3.25 -1.21875 C 3.25 -0.945312 3.175781 -0.710938 3.03125 -0.515625 C 2.894531 -0.316406 2.707031 -0.164062 2.46875 -0.0625 C 2.226562 0.03125 1.960938 0.078125 1.671875 0.078125 Z M 1.671875 0.078125 "/></g></g></g></g><g fill="#000000" fill-opacity="1"><g transform="translate(3.839287, 15.696529)"><g><path d="M 0.265625 0 L 0.265625 -0.515625 C 0.878906 -1.066406 1.359375 -1.554688 1.703125 -1.984375 C 2.046875 -2.421875 2.21875 -2.8125 2.21875 -3.15625 C 2.21875 -3.382812 2.15625 -3.5625 2.03125 -3.6875 C 1.914062 -3.820312 1.75 -3.890625 1.53125 -3.890625 C 1.375 -3.890625 1.222656 -3.84375 1.078125 -3.75 C 0.941406 -3.65625 0.816406 -3.546875 0.703125 -3.421875 L 0.21875 -3.90625 C 0.425781 -4.125 0.640625 -4.289062 0.859375 -4.40625 C 1.078125 -4.53125 1.34375 -4.59375 1.65625 -4.59375 C 1.9375 -4.59375 2.179688 -4.535156 2.390625 -4.421875 C 2.609375 -4.304688 2.773438 -4.144531 2.890625 -3.9375 C 3.015625 -3.726562 3.078125 -3.484375 3.078125 -3.203125 C 3.078125 -2.929688 3.003906 -2.65625 2.859375 -2.375 C 2.722656 -2.09375 2.539062 -1.8125 2.3125 -1.53125 C 2.09375 -1.25 1.847656 -0.972656 1.578125 -0.703125 C 1.691406 -0.710938 1.816406 -0.722656 1.953125 -0.734375 C 2.085938 -0.742188 2.203125 -0.75 2.296875 -0.75 L 3.28125 -0.75 L 3.28125 0 Z M 0.265625 0 "/></g></g></g><g fill="#000000" fill-opacity="1"><g transform="translate(7.428573, 15.696529)"><g><path d="M 5.0625 -0.75 L 4.625 -0.3125 L 3.046875 -1.875 L 1.484375 -0.3125 L 1.046875 -0.75 L 2.609375 -2.3125 L 1.046875 -3.875 L 1.484375 -4.328125 L 3.046875 -2.75 L 4.625 -4.328125 L 5.0625 -3.875 L 3.484375 -2.3125 Z M 5.0625 -0.75 "/></g></g></g><g fill="#000000" fill-opacity="1"><g transform="translate(13.522433, 15.696529)"><g><path d="M 1.671875 0.078125 C 1.316406 0.078125 1.015625 0.0195312 0.765625 -0.09375 C 0.515625 -0.21875 0.3125 -0.367188 0.15625 -0.546875 L 0.578125 -1.109375 C 0.710938 -0.972656 0.863281 -0.859375 1.03125 -0.765625 C 1.195312 -0.679688 1.378906 -0.640625 1.578125 -0.640625 C 1.804688 -0.640625 1.992188 -0.691406 2.140625 -0.796875 C 2.285156 -0.910156 2.359375 -1.070312 2.359375 -1.28125 C 2.359375 -1.425781 2.320312 -1.550781 2.25 -1.65625 C 2.175781 -1.757812 2.050781 -1.84375 1.875 -1.90625 C 1.695312 -1.96875 1.441406 -2 1.109375 -2 L 1.109375 -2.640625 C 1.378906 -2.640625 1.59375 -2.664062 1.75 -2.71875 C 1.914062 -2.78125 2.03125 -2.863281 2.09375 -2.96875 C 2.164062 -3.070312 2.203125 -3.191406 2.203125 -3.328125 C 2.203125 -3.503906 2.148438 -3.640625 2.046875 -3.734375 C 1.941406 -3.835938 1.796875 -3.890625 1.609375 -3.890625 C 1.441406 -3.890625 1.289062 -3.851562 1.15625 -3.78125 C 1.019531 -3.707031 0.882812 -3.609375 0.75 -3.484375 L 0.296875 -4.046875 C 0.484375 -4.210938 0.6875 -4.34375 0.90625 -4.4375 C 1.132812 -4.539062 1.378906 -4.59375 1.640625 -4.59375 C 2.078125 -4.59375 2.429688 -4.488281 2.703125 -4.28125 C 2.972656 -4.070312 3.109375 -3.773438 3.109375 -3.390625 C 3.109375 -3.148438 3.039062 -2.941406 2.90625 -2.765625 C 2.78125 -2.585938 2.597656 -2.453125 2.359375 -2.359375 L 2.359375 -2.328125 C 2.609375 -2.265625 2.816406 -2.140625 2.984375 -1.953125 C 3.160156 -1.765625 3.25 -1.519531 3.25 -1.21875 C 3.25 -0.945312 3.175781 -0.710938 3.03125 -0.515625 C 2.894531 -0.316406 2.707031 -0.164062 2.46875 -0.0625 C 2.226562 0.03125 1.960938 0.078125 1.671875 0.078125 Z M 1.671875 0.078125 "/></g></g></g><g fill="#000000" fill-opacity="1"><g transform="translate(17.111719, 15.696529)"><g><path d="M 0.265625 0 L 0.265625 -0.515625 C 0.878906 -1.066406 1.359375 -1.554688 1.703125 -1.984375 C 2.046875 -2.421875 2.21875 -2.8125 2.21875 -3.15625 C 2.21875 -3.382812 2.15625 -3.5625 2.03125 -3.6875 C 1.914062 -3.820312 1.75 -3.890625 1.53125 -3.890625 C 1.375 -3.890625 1.222656 -3.84375 1.078125 -3.75 C 0.941406 -3.65625 0.816406 -3.546875 0.703125 -3.421875 L 0.21875 -3.90625 C 0.425781 -4.125 0.640625 -4.289062 0.859375 -4.40625 C 1.078125 -4.53125 1.34375 -4.59375 1.65625 -4.59375 C 1.9375 -4.59375 2.179688 -4.535156 2.390625 -4.421875 C 2.609375 -4.304688 2.773438 -4.144531 2.890625 -3.9375 C 3.015625 -3.726562 3.078125 -3.484375 3.078125 -3.203125 C 3.078125 -2.929688 3.003906 -2.65625 2.859375 -2.375 C 2.722656 -2.09375 2.539062 -1.8125 2.3125 -1.53125 C 2.09375 -1.25 1.847656 -0.972656 1.578125 -0.703125 C 1.691406 -0.710938 1.816406 -0.722656 1.953125 -0.734375 C 2.085938 -0.742188 2.203125 -0.75 2.296875 -0.75 L 3.28125 -0.75 L 3.28125 0 Z M 0.265625 0 "/></g></g></g><g clip-path="url(#a0839910be)"><g fill="#000000" fill-opacity="1"><g transform="translate(20.701005, 15.696529)"><g><path d="M 0.484375 1.3125 L 0.484375 -3.40625 L 1.21875 -3.40625 L 1.28125 -3.0625 L 1.296875 -3.0625 C 1.441406 -3.175781 1.597656 -3.273438 1.765625 -3.359375 C 1.941406 -3.453125 2.117188 -3.5 2.296875 -3.5 C 2.578125 -3.5 2.816406 -3.425781 3.015625 -3.28125 C 3.222656 -3.132812 3.378906 -2.929688 3.484375 -2.671875 C 3.585938 -2.410156 3.640625 -2.109375 3.640625 -1.765625 C 3.640625 -1.367188 3.570312 -1.03125 3.4375 -0.75 C 3.300781 -0.476562 3.125 -0.269531 2.90625 -0.125 C 2.6875 0.0078125 2.445312 0.078125 2.1875 0.078125 C 2.039062 0.078125 1.894531 0.046875 1.75 -0.015625 C 1.613281 -0.078125 1.476562 -0.164062 1.34375 -0.28125 L 1.375 0.28125 L 1.375 1.3125 Z M 2 -0.65625 C 2.195312 -0.65625 2.363281 -0.742188 2.5 -0.921875 C 2.644531 -1.097656 2.71875 -1.375 2.71875 -1.75 C 2.71875 -2.070312 2.664062 -2.320312 2.5625 -2.5 C 2.457031 -2.675781 2.285156 -2.765625 2.046875 -2.765625 C 1.929688 -2.765625 1.816406 -2.734375 1.703125 -2.671875 C 1.597656 -2.609375 1.488281 -2.519531 1.375 -2.40625 L 1.375 -0.90625 C 1.476562 -0.8125 1.582031 -0.742188 1.6875 -0.703125 C 1.800781 -0.671875 1.90625 -0.65625 2 -0.65625 Z M 2 -0.65625 "/></g></g></g></g><g fill="#000000" fill-opacity="1"><g transform="translate(24.454752, 15.696529)"><g><path d="M 0.09375 0 L 1.15625 -1.78125 L 0.171875 -3.40625 L 1.125 -3.40625 L 1.46875 -2.796875 C 1.570312 -2.609375 1.671875 -2.421875 1.765625 -2.234375 L 1.796875 -2.234375 C 1.835938 -2.328125 1.878906 -2.421875 1.921875 -2.515625 C 1.960938 -2.609375 2.003906 -2.703125 2.046875 -2.796875 L 2.328125 -3.40625 L 3.265625 -3.40625 L 2.265625 -1.671875 L 3.328125 0 L 2.359375 0 L 1.984375 -0.625 C 1.929688 -0.726562 1.878906 -0.828125 1.828125 -0.921875 C 1.773438 -1.023438 1.71875 -1.125 1.65625 -1.21875 L 1.625 -1.21875 C 1.570312 -1.125 1.519531 -1.023438 1.46875 -0.921875 C 1.425781 -0.828125 1.382812 -0.726562 1.34375 -0.625 L 1.03125 0 Z M 0.09375 0 "/></g></g></g></g></g></svg>